<?xml version="1.0" encoding="UTF-8"?>
<!-- (c) Carrd Inc. All rights reserved. All logos and trademarks are property of their respective owners. -->
<svg xmlns="http://www.w3.org/2000/svg" version="1.1" xmlns:xlink="http://www.w3.org/1999/xlink" viewBox="0 0 40 40" display="none" width="0" height="0">
	<symbol id="heart" viewBox="0 0 40 40"><path d="M20.9,37L33,25.3c3-3,4.5-5.9,4.5-8.8c0-2.9-0.8-5.1-2.5-6.7c-1.6-1.6-3.9-2.4-6.8-2.4c-0.8,0-1.6,0.1-2.5,0.4 S24.1,8.5,23.3,9c-0.7,0.5-1.3,0.9-1.9,1.3c-0.5,0.4-1,0.9-1.5,1.3c-0.5-0.5-1-0.9-1.5-1.3C18,9.9,17.4,9.5,16.7,9 c-0.7-0.5-1.5-0.9-2.3-1.1s-1.7-0.4-2.5-0.4C9,7.5,6.7,8.3,5,9.9s-2.5,3.8-2.5,6.7c0,0.9,0.2,1.8,0.5,2.7c0.3,0.9,0.7,1.7,1,2.4 c0.4,0.6,0.8,1.3,1.3,1.9c0.5,0.6,0.9,1,1.1,1.3C6.7,25,6.9,25.2,7,25.3L19.1,37c0.2,0.2,0.5,0.4,0.9,0.4S20.6,37.3,20.9,37z"/></symbol>
	<symbol id="arrow-down-light" viewBox="0 0 40 40"><path d="M19.8,34.2c-0.3,0-0.3-0.1-0.4-0.1L6.6,21.4c-0.1-0.1-0.1-0.1-0.1-0.4c0-0.3,0.1-0.3,0.1-0.4l1.5-1.5 C8.2,19.1,8.2,19,8.5,19s0.3,0.1,0.4,0.1l9.2,9.2V5.9c0-0.1,0-0.2,0-0.2c0,0,0,0,0,0c0.1-0.1,0.2-0.1,0.4-0.1H21 c0.2,0,0.4,0.1,0.5,0.1c0,0,0,0.1,0,0.2v22.4l9.2-9.2c0.1-0.1,0.1-0.1,0.4-0.1c0.3,0,0.3,0.1,0.4,0.1l1.5,1.5 c0.1,0.1,0.1,0.1,0.1,0.4c0,0.3-0.1,0.3-0.1,0.4L20.2,34.1C20.1,34.1,20.1,34.2,19.8,34.2z"/></symbol>
	<symbol id="linkedin" viewBox="0 0 40 40"><path d="M12.1,13.8v19.1H5.7V13.8C5.7,13.8,12.1,13.8,12.1,13.8z M12.5,7.9c0,0.9-0.3,1.7-1,2.4c-0.7,0.6-1.5,0.9-2.6,0.9h0 c-1.1,0-1.9-0.3-2.5-0.9c-0.6-0.6-1-1.4-1-2.4c0-1,0.3-1.7,1-2.4S7.9,4.6,9,4.6s1.9,0.3,2.6,0.9S12.5,6.9,12.5,7.9z M35,22v11h-6.4 V22.7c0-1.4-0.3-2.4-0.8-3.2c-0.5-0.8-1.3-1.1-2.4-1.1c-0.8,0-1.5,0.2-2,0.7c-0.5,0.4-1,1-1.2,1.7c-0.1,0.4-0.2,0.9-0.2,1.6v10.7 h-6.4c0-5.1,0-9.3,0-12.5s0-5.1,0-5.7l0-0.9H22v2.8h0c0.3-0.4,0.5-0.8,0.8-1.1c0.3-0.3,0.6-0.6,1.1-1c0.5-0.4,1-0.6,1.7-0.8 c0.7-0.2,1.4-0.3,2.2-0.3c2.2,0,4,0.7,5.3,2.2C34.4,17,35,19.1,35,22L35,22z"/></symbol>
	<symbol id="arrow-right-light" viewBox="0 0 40 40"><path d="M34.1,19.9c0,0.3-0.1,0.3-0.1,0.4L21.3,33.1c-0.1,0.1-0.1,0.1-0.4,0.1c-0.3,0-0.3-0.1-0.4-0.1L19,31.6 c-0.1-0.1-0.1-0.1-0.1-0.4s0.1-0.3,0.1-0.4l9.2-9.2H5.8c-0.1,0-0.2,0-0.2,0c0,0,0,0,0,0c-0.1-0.1-0.1-0.2-0.1-0.4v-2.5 c0-0.2,0.1-0.4,0.1-0.5c0,0,0.1,0,0.2,0h22.4L19,9c-0.1-0.1-0.1-0.1-0.1-0.4c0-0.3,0.1-0.3,0.1-0.4l1.5-1.5c0.1-0.1,0.1-0.1,0.4-0.1 c0.3,0,0.3,0.1,0.4,0.1L34,19.5C34,19.6,34.1,19.6,34.1,19.9z"/></symbol>
	<symbol id="calendar" viewBox="0 0 40 40"><path d="M32.4,32.6h-5.1v-5.1h5.1V32.6z M26.2,32.6h-5.7v-5.1h5.7V32.6z M32.4,26.3h-5.1v-5.7h5.1V26.3z M26.2,26.3h-5.7v-5.7h5.7 V26.3z M32.4,19.6h-5.1v-5.1h5.1V19.6z M19.4,32.6h-5.7v-5.1h5.7V32.6z M26.2,19.6h-5.7v-5.1h5.7V19.6z M12.6,32.6H7.6v-5.1h5.1 V32.6z M19.4,26.3h-5.7v-5.7h5.7V26.3z M25.7,11.1V6c0-0.2,0.1-0.3,0.2-0.4c0.1-0.1,0.2-0.2,0.4-0.2h1.1c0.2,0,0.3,0.1,0.4,0.2 c0.1,0.1,0.2,0.2,0.2,0.4v5.1c0,0.2-0.1,0.3-0.2,0.4c-0.1,0.1-0.2,0.2-0.4,0.2h-1.1c-0.2,0-0.3-0.1-0.4-0.2 C25.7,11.4,25.7,11.2,25.7,11.1z M12.6,26.3H7.6v-5.7h5.1V26.3z M19.4,19.6h-5.7v-5.1h5.7V19.6z M12.6,19.6H7.6v-5.1h5.1V19.6z M12.1,11.1V6c0-0.2,0.1-0.3,0.2-0.4c0.1-0.1,0.2-0.2,0.4-0.2h1.1c0.2,0,0.3,0.1,0.4,0.2c0.1,0.1,0.2,0.2,0.2,0.4v5.1 c0,0.2-0.1,0.3-0.2,0.4c-0.1,0.1-0.2,0.2-0.4,0.2h-1.1c-0.2,0-0.3-0.1-0.4-0.2C12.1,11.4,12.1,11.2,12.1,11.1z M5.3,9.9v22.6 c0,0.6,0.2,1.1,0.7,1.6c0.4,0.4,1,0.7,1.6,0.7h24.9c0.6,0,1.1-0.2,1.6-0.7c0.4-0.4,0.7-1,0.7-1.6V9.9c0-0.6-0.2-1.1-0.7-1.6 c-0.4-0.4-1-0.7-1.6-0.7h-2.3V6c0-0.8-0.3-1.4-0.8-2s-1.2-0.8-2-0.8h-1.1c-0.8,0-1.4,0.3-2,0.8c-0.6,0.6-0.8,1.2-0.8,2v1.7h-6.8V6 c0-0.8-0.3-1.4-0.8-2s-1.2-0.8-2-0.8h-1.1c-0.8,0-1.4,0.3-2,0.8c-0.6,0.6-0.8,1.2-0.8,2v1.7H7.6C6.9,7.7,6.4,7.9,6,8.3 C5.5,8.8,5.3,9.3,5.3,9.9z" /></symbol>
	<symbol id="art" viewBox="0 0 40 40"><path d="M30.79,3.55L18.33,14.86c-1.2,1.09-1.8,2.47-1.8,4.14c0,1.65,0.59,3.08,1.77,4.29s2.59,1.81,4.23,1.81 c1.58,0,2.99-0.59,4.26-1.78c1.73-1.6,4.76-6.5,9.08-14.69c0.59-1.15,0.88-2.13,0.88-2.95c0-0.91-0.34-1.67-1.03-2.28 S34.24,2.5,33.33,2.5C32.41,2.5,31.56,2.85,30.79,3.55z M13.14,22.9c-0.68,0.1-1.35,0.26-2.01,0.5s-1.24,0.54-1.72,0.93 c-0.48,0.38-0.93,0.88-1.36,1.48c-0.42,0.61-0.8,1.34-1.12,2.2c-0.18,0.48-0.54,0.72-1.07,0.72c-0.2,0-0.49-0.11-0.9-0.33 s-0.79-0.46-1.15-0.71s-0.77-0.54-1.21-0.87s-0.71-0.52-0.8-0.59c0,1.54,0.19,2.97,0.57,4.3s0.94,2.52,1.69,3.57 s1.74,1.88,2.98,2.49s2.66,0.91,4.26,0.91c2.8,0,5.07-0.87,6.81-2.62s2.58-4,2.53-6.78l-0.02-1.39c-1.08-0.29-2.06-0.78-2.94-1.48 s-1.57-1.55-2.08-2.54C14.63,22.73,13.81,22.8,13.14,22.9z"/></symbol>
	<symbol id="feed" viewBox="0 0 40 40"><path d="M13.98,30.77c0,1.17-0.41,2.17-1.23,2.99C11.94,34.59,10.94,35,9.77,35c-1.17,0-2.16-0.41-2.98-1.23 c-0.82-0.82-1.23-1.82-1.23-2.99s0.41-2.17,1.23-2.99c0.82-0.82,1.81-1.23,2.98-1.23c1.17,0,2.16,0.41,2.98,1.23 C13.57,28.6,13.98,29.6,13.98,30.77z M25.21,33.48c0.03,0.41-0.1,0.76-0.37,1.06C24.57,34.85,24.23,35,23.8,35h-2.96 c-0.37,0-0.68-0.12-0.94-0.36c-0.26-0.24-0.41-0.55-0.44-0.91c-0.32-3.36-1.67-6.23-4.05-8.62c-2.38-2.39-5.24-3.74-8.58-4.06 c-0.37-0.03-0.67-0.18-0.91-0.44c-0.24-0.26-0.36-0.58-0.36-0.95v-2.97c0-0.43,0.15-0.77,0.46-1.03c0.25-0.25,0.56-0.37,0.94-0.37 h0.11c2.34,0.19,4.57,0.78,6.71,1.77c2.13,0.99,4.03,2.32,5.68,4c1.67,1.66,2.99,3.56,3.98,5.7C24.43,28.89,25.02,31.13,25.21,33.48 z M36.43,33.52c0.03,0.4-0.1,0.74-0.39,1.03c-0.26,0.29-0.6,0.44-1.01,0.44h-3.14c-0.38,0-0.71-0.13-0.98-0.39 c-0.27-0.26-0.41-0.57-0.43-0.94c-0.18-3.16-0.91-6.15-2.21-8.99c-1.3-2.84-2.99-5.31-5.08-7.4c-2.08-2.09-4.54-3.79-7.37-5.1 c-2.83-1.31-5.81-2.05-8.96-2.25C6.51,9.93,6.2,9.79,5.95,9.52C5.69,9.24,5.56,8.92,5.56,8.56V5.41C5.56,5,5.71,4.66,6,4.4 C6.26,4.13,6.59,4,6.97,4h0.07c3.83,0.19,7.49,1.07,11,2.64c3.5,1.57,6.61,3.73,9.33,6.47c2.73,2.73,4.88,5.85,6.45,9.37 C35.37,26,36.24,29.68,36.43,33.52z"/></symbol>
	<symbol id="x" viewBox="0 0 40 40"><path d="M30.1,4h5.4L23.7,17.6L37.6,36H26.7l-8.5-11.2L8.5,36H3.1l12.6-14.5L2.4,4h11.1l7.7,10.2L30.1,4z M28.2,32.8h3L11.9,7.1H8.7 L28.2,32.8z"/></symbol>
	<symbol id="bluesky" viewBox="0 0 40 40"><path d="M20,19.7c-1.6-3.1-5.9-8.8-9.9-11.6C6.2,5.4,4.8,5.9,3.8,6.3C2.7,6.8,2.5,8.5,2.5,9.5s0.6,8.2,0.9,9.4 c1.2,4,5.4,5.3,9.3,4.9c0.2,0,0.4-0.1,0.6-0.1c-0.2,0-0.4,0.1-0.6,0.1C7,24.7,1.9,26.8,8.6,34.2c7.3,7.6,10-1.6,11.4-6.3 c1.4,4.7,3,13.5,11.3,6.3c6.2-6.3,1.7-9.5-4-10.3c-0.2,0-0.4,0-0.6-0.1c0.2,0,0.4,0.1,0.6,0.1c3.9,0.4,8.1-0.9,9.3-4.9 c0.4-1.2,0.9-8.4,0.9-9.4s-0.2-2.7-1.3-3.2c-1-0.4-2.4-0.9-6.3,1.8C25.9,10.9,21.6,16.7,20,19.7z"/></symbol>
	<symbol id="email" viewBox="0 0 40 40"><path d="M37.3,15.3v15.3c0,0.8-0.3,1.6-0.9,2.2c-0.6,0.6-1.4,0.9-2.2,0.9H5.8c-0.8,0-1.6-0.3-2.2-0.9s-0.9-1.4-0.9-2.2V15.3 c0.5,0.6,1.2,1.1,2,1.7c4.7,3.1,7.9,5.4,9.6,6.7c0.7,0.5,1.4,0.9,1.8,1.2c0.4,0.3,1,0.6,1.9,0.9c0.7,0.3,1.5,0.5,2.1,0.5l0,0 c0.6,0,1.4-0.2,2.1-0.5c0.7-0.3,1.4-0.6,1.9-0.9c0.4-0.3,1-0.7,1.8-1.2c2.2-1.6,5.4-3.8,9.6-6.7C36.1,16.5,36.7,15.9,37.3,15.3 L37.3,15.3z M37.3,9.6c0,1-0.3,2-0.9,2.9c-0.6,0.9-1.5,1.8-2.4,2.4c-4.9,3.3-7.9,5.4-9,6.2c-0.1,0.1-0.4,0.3-0.8,0.6 c-0.4,0.3-0.7,0.5-1,0.7c-0.3,0.2-0.6,0.4-1,0.6c-0.4,0.2-0.7,0.4-1.1,0.5c-0.4,0.1-0.6,0.2-0.9,0.2l0,0c-0.3,0-0.6-0.1-0.9-0.2 c-0.3-0.1-0.7-0.3-1.1-0.5c-0.4-0.2-0.7-0.4-1-0.6c-0.3-0.2-0.6-0.4-1-0.7c-0.4-0.3-0.7-0.5-0.8-0.6c-1.1-0.8-2.8-2-5.1-3.5 c-2.3-1.6-3.3-2.4-3.7-2.7c-0.8-0.5-1.6-1.2-2.3-2.2s-1-1.9-1-2.6c0-1,0.3-1.9,0.8-2.5c0.5-0.6,1.2-1,2.3-1h28.4 c0.8,0,1.6,0.3,2.2,0.9C37.1,8.1,37.3,8.8,37.3,9.6L37.3,9.6z"/></symbol>
	<symbol id="arrow-up-alt" viewBox="0 0 40 40"><path d="M30.2,27.7L19.8,17.3L9.4,27.7c-0.2,0.2-0.5,0.4-0.9,0.4c-0.3,0-0.6-0.1-0.9-0.4l-3.3-3.3c-0.2-0.2-0.4-0.5-0.4-0.9 s0.1-0.6,0.4-0.9L18.9,8.1c0.2-0.2,0.5-0.4,0.9-0.4c0.3,0,0.6,0.1,0.9,0.4l14.6,14.6c0.2,0.2,0.4,0.5,0.4,0.9s-0.1,0.6-0.4,0.9 L32,27.8c-0.2,0.2-0.5,0.4-0.9,0.4S30.5,27.9,30.2,27.7z" /></symbol>
	<symbol id="arrow-up" viewBox="0 0 40 40"><path d="M21.1,34.4h-2.5c-0.7,0-1.3-0.2-1.8-0.6c-0.5-0.4-0.7-1-0.7-1.7V18.3l-5.8,5.8c-0.5,0.5-1.1,0.7-1.8,0.7 c-0.7,0-1.3-0.2-1.8-0.7l-1.5-1.5c-0.5-0.5-0.7-1.1-0.7-1.8c0-0.7,0.2-1.3,0.7-1.8L18,6.3c0.5-0.5,1.1-0.7,1.8-0.7 c0.7,0,1.3,0.2,1.8,0.7L34.4,19c0.5,0.5,0.7,1.1,0.7,1.8c0,0.7-0.2,1.3-0.7,1.8l-1.5,1.5c-0.5,0.5-1.1,0.7-1.8,0.7s-1.3-0.2-1.8-0.7 l-5.8-5.8v13.8c0,0.7-0.2,1.2-0.7,1.7C22.3,34.2,21.8,34.4,21.1,34.4z" /></symbol>
</svg>
